<svg width="14" height="20" viewBox="0 0 14 20" fill="none" xmlns="http://www.w3.org/2000/svg">
<path d="M13.9991 3.62549C13.9989 3.28456 13.8806 2.95372 13.6635 2.68678C13.4465 2.41985 13.1433 2.2325 12.8034 2.15523L12.4117 0.765522C12.3402 0.540803 12.1961 0.344769 12.001 0.206791C11.8059 0.0688127 11.5703 -0.00367915 11.3294 0.000177142H2.6606C2.42068 -0.00496817 2.1857 0.0671944 1.99195 0.205521C1.7982 0.343848 1.65645 0.540645 1.58859 0.765522L1.19689 2.15523C0.844612 2.24202 0.533567 2.44447 0.31588 2.72864C0.0981932 3.01282 -0.0129077 3.36145 0.00119467 3.71613C0.000338959 4.03791 0.106391 4.35127 0.303417 4.60913C0.500443 4.86699 0.777801 5.05542 1.09382 5.14611L1.19689 7.93559C1.03186 7.96176 0.879959 8.0395 0.763969 8.15714C0.691115 8.23222 0.63442 8.32081 0.597239 8.41768C0.560058 8.51454 0.543146 8.61771 0.547506 8.72108L0.794892 14.5216C0.802405 14.6998 0.873503 14.8699 0.995869 15.0023C1.11823 15.1347 1.28416 15.2212 1.4649 15.2466L1.54736 17.4823C1.56858 18.1591 1.85955 18.8011 2.35826 19.2714C2.85696 19.7416 3.52395 20.003 4.21707 19.9998H9.77295C10.4677 20.0052 11.137 19.7448 11.6378 19.2743C12.1386 18.8039 12.4312 18.1607 12.453 17.4823L12.5354 15.2466C12.7142 15.2189 12.8776 15.1315 12.9979 14.9993C13.1181 14.8671 13.1878 14.6983 13.1951 14.5216L13.4425 8.72108C13.4469 8.61771 13.43 8.51454 13.3928 8.41768C13.3556 8.32081 13.2989 8.23222 13.2261 8.15714C13.1142 8.03963 12.9655 7.96171 12.8034 7.93559L12.9065 5.14611C13.2328 5.04274 13.5159 4.8385 13.713 4.56421C13.91 4.28991 14.0105 3.96044 13.9991 3.62549ZM2.6606 1.00721L11.4119 1.03742L11.7211 2.11494H2.29982L2.6606 1.00721ZM11.4222 17.452C11.4093 17.8689 11.2291 18.2641 10.9205 18.5524C10.612 18.8406 10.1998 18.9988 9.77295 18.9928H4.21707C3.79175 18.9969 3.38175 18.8378 3.07526 18.5497C2.76877 18.2616 2.59027 17.8674 2.57813 17.452L2.49567 15.2567H11.5047L11.4222 17.452ZM4.83553 11.5911C4.83553 11.1729 4.96249 10.764 5.20034 10.4162C5.43819 10.0684 5.77626 9.79739 6.17179 9.63733C6.56733 9.47727 7.00256 9.43539 7.42246 9.51699C7.84236 9.59858 8.22806 9.8 8.53079 10.0958C8.83352 10.3915 9.03968 10.7683 9.1232 11.1785C9.20672 11.5888 9.16386 12.014 9.00002 12.4004C8.83618 12.7868 8.55874 13.1171 8.20277 13.3495C7.8468 13.5819 7.42829 13.7059 7.00016 13.7059C6.42607 13.7059 5.87549 13.4831 5.46954 13.0865C5.06359 12.6899 4.83553 12.152 4.83553 11.5911ZM11.7727 7.91545H2.22767L2.12459 5.22668H11.8654L11.7727 7.91545ZM12.453 4.21964H1.54736C1.47232 4.21718 1.39863 4.1994 1.33105 4.16745C1.26346 4.1355 1.20347 4.09009 1.15492 4.03412C1.10638 3.97816 1.07036 3.9129 1.04919 3.84252C1.02801 3.77214 1.02215 3.69822 1.03197 3.62549C1.03197 3.49195 1.08627 3.36388 1.18292 3.26945C1.27958 3.17503 1.41067 3.12198 1.54736 3.12198H12.453C12.5277 3.12534 12.6009 3.14371 12.668 3.17595C12.7352 3.20819 12.7948 3.25361 12.8431 3.30936C12.8915 3.36512 12.9276 3.43001 12.9491 3.5C12.9707 3.56999 12.9772 3.64356 12.9684 3.71613C12.9684 3.84967 12.9141 3.97774 12.8174 4.07217C12.7207 4.16659 12.5897 4.21964 12.453 4.21964Z" fill="#6C331E"/>
</svg>
