<svg width="32" height="32" viewBox="0 0 32 32" fill="none" xmlns="http://www.w3.org/2000/svg">
<path d="M25.3321 7.50066C25.3318 7.04608 25.1741 6.60497 24.8847 6.24905C24.5952 5.89313 24.1911 5.64334 23.7379 5.54031L23.2156 3.68737C23.1203 3.38774 22.9281 3.12636 22.668 2.94239C22.4078 2.75842 22.0936 2.66177 21.7725 2.66691H10.2141C9.8942 2.66005 9.5809 2.75626 9.32256 2.9407C9.06422 3.12514 8.87522 3.38753 8.78475 3.68737L8.26249 5.54031C7.79278 5.65603 7.37805 5.92596 7.0878 6.30486C6.79755 6.68376 6.64942 7.14861 6.66822 7.62151C6.66708 8.05055 6.80848 8.46836 7.07118 8.81218C7.33388 9.15599 7.70369 9.40723 8.12505 9.52815L8.26249 13.2475C8.04244 13.2824 7.8399 13.386 7.68525 13.5429C7.58811 13.643 7.51252 13.7611 7.46294 13.8902C7.41337 14.0194 7.39082 14.157 7.39663 14.2948L7.72648 22.0288C7.7365 22.2664 7.8313 22.4932 7.99445 22.6698C8.15761 22.8463 8.37884 22.9616 8.61982 22.9955L8.72977 25.9763C8.75807 26.8788 9.14603 27.7348 9.81097 28.3618C10.4759 28.9889 11.3652 29.3374 12.2894 29.3331H19.6972C20.6235 29.3402 21.516 28.993 22.1837 28.3658C22.8515 27.7385 23.2415 26.8809 23.2706 25.9763L23.3805 22.9955C23.6189 22.9585 23.8368 22.8419 23.9971 22.6657C24.1575 22.4895 24.2504 22.2644 24.2601 22.0288L24.59 14.2948C24.5958 14.157 24.5732 14.0194 24.5237 13.8902C24.4741 13.7611 24.3985 13.643 24.3014 13.5429C24.1522 13.3862 23.954 13.2823 23.7379 13.2475L23.8753 9.52815C24.3104 9.39033 24.6878 9.11801 24.9506 8.75228C25.2134 8.38656 25.3473 7.94726 25.3321 7.50066ZM10.2141 4.00962L21.8825 4.0499L22.2948 5.4866H9.73306L10.2141 4.00962ZM21.8962 25.9361C21.879 26.4919 21.6387 27.0188 21.2273 27.4032C20.8159 27.7875 20.2664 27.9984 19.6972 27.9904H12.2894C11.7223 27.9959 11.1756 27.7838 10.767 27.3996C10.3583 27.0154 10.1203 26.4899 10.1041 25.9361L9.99419 23.009H22.0062L21.8962 25.9361ZM13.114 18.1215C13.114 17.5638 13.2833 17.0187 13.6004 16.555C13.9175 16.0913 14.3683 15.7299 14.8957 15.5164C15.4231 15.303 16.0034 15.2472 16.5632 15.356C17.1231 15.4648 17.6374 15.7333 18.041 16.1277C18.4446 16.522 18.7195 17.0244 18.8309 17.5714C18.9423 18.1184 18.8851 18.6853 18.6667 19.2005C18.4482 19.7158 18.0783 20.1562 17.6036 20.466C17.129 20.7758 16.571 20.9412 16.0002 20.9412C15.2347 20.9412 14.5006 20.6441 13.9593 20.1153C13.4181 19.5865 13.114 18.8693 13.114 18.1215ZM22.3635 13.2206H9.63685L9.49942 9.63557H22.4872L22.3635 13.2206ZM23.2706 8.29286H8.72977C8.62972 8.28958 8.53147 8.26588 8.44136 8.22328C8.35124 8.18068 8.27125 8.12012 8.20652 8.0455C8.1418 7.97089 8.09378 7.88387 8.06554 7.79003C8.03731 7.6962 8.02949 7.59763 8.04259 7.50066C8.04259 7.32261 8.11499 7.15185 8.24386 7.02594C8.37273 6.90004 8.54752 6.82931 8.72977 6.82931H23.2706C23.3702 6.83379 23.4678 6.85829 23.5573 6.90128C23.6469 6.94426 23.7263 7.00482 23.7908 7.07916C23.8553 7.1535 23.9034 7.24002 23.9321 7.33334C23.9609 7.42665 23.9696 7.52475 23.9578 7.62151C23.9578 7.79956 23.8854 7.97032 23.7565 8.09623C23.6276 8.22213 23.4528 8.29286 23.2706 8.29286Z" fill="#F6F0E9"/>
</svg>
