<svg width="14" height="14" viewBox="0 0 14 14" fill="none" xmlns="http://www.w3.org/2000/svg">
<path d="M7.00004 0.333359C10.682 0.333359 13.6667 3.31803 13.6667 7.00003C13.6667 10.682 10.682 13.6667 7.00004 13.6667C3.31804 13.6667 0.333374 10.682 0.333374 7.00003C0.333374 3.31803 3.31804 0.333359 7.00004 0.333359ZM7.00004 1.66669C5.58555 1.66669 4.229 2.2286 3.2288 3.22879C2.22861 4.22898 1.66671 5.58554 1.66671 7.00003C1.66671 8.41451 2.22861 9.77107 3.2288 10.7713C4.229 11.7715 5.58555 12.3334 7.00004 12.3334C8.41453 12.3334 9.77108 11.7715 10.7713 10.7713C11.7715 9.77107 12.3334 8.41451 12.3334 7.00003C12.3334 5.58554 11.7715 4.22898 10.7713 3.22879C9.77108 2.2286 8.41453 1.66669 7.00004 1.66669ZM6.99337 5.66669C7.36537 5.66669 7.66671 5.96803 7.66671 6.34003V9.75603C7.79379 9.82941 7.89312 9.94267 7.94927 10.0783C8.00543 10.2138 8.01528 10.3642 7.9773 10.5059C7.93931 10.6477 7.85562 10.7729 7.7392 10.8623C7.62277 10.9516 7.48013 11 7.33337 11H7.00671C6.91828 11 6.83073 10.9826 6.74903 10.9488C6.66734 10.9149 6.59311 10.8653 6.53059 10.8028C6.46806 10.7403 6.41847 10.6661 6.38463 10.5844C6.35079 10.5027 6.33337 10.4151 6.33337 10.3267V7.00003C6.15656 7.00003 5.98699 6.92979 5.86197 6.80476C5.73695 6.67974 5.66671 6.51017 5.66671 6.33336C5.66671 6.15655 5.73695 5.98698 5.86197 5.86195C5.98699 5.73693 6.15656 5.66669 6.33337 5.66669H6.99337ZM7.00004 3.66669C7.17685 3.66669 7.34642 3.73693 7.47145 3.86195C7.59647 3.98698 7.66671 4.15655 7.66671 4.33336C7.66671 4.51017 7.59647 4.67974 7.47145 4.80476C7.34642 4.92979 7.17685 5.00003 7.00004 5.00003C6.82323 5.00003 6.65366 4.92979 6.52864 4.80476C6.40361 4.67974 6.33337 4.51017 6.33337 4.33336C6.33337 4.15655 6.40361 3.98698 6.52864 3.86195C6.65366 3.73693 6.82323 3.66669 7.00004 3.66669Z" fill="#6C331E"/>
</svg>
